<svg xmlns="http://www.w3.org/2000/svg" viewBox="0 0 32 32" fill="none">
  <path d="M5.902 27.201L3.656 2h24.688l-2.249 25.197L15.985 30 5.902 27.201z" fill="#1572B6"/>
  <path d="M16 27.858l8.17-2.265 1.922-21.532H16v23.797z" fill="#33A9DC"/>
  <path d="M16 13.191h4.09l.282-3.165H16V6.935h7.75l-.074.826-.759 8.52H16v-3.09z" fill="#fff"/>
  <path d="M16.019 21.218l-.014.004-3.442-.93-.22-2.465h-3.103l.433 4.852 6.332 1.758.014-.004v-3.215z" fill="#EBEBEB"/>
  <path d="M19.827 16.151l-.379 4.236-3.43.926v3.216l6.317-1.749.046-.522.726-8.142.076-.826H16.01v3.09h3.817z" fill="#fff"/>
  <path d="M16.011 6.935v3.091H8.545l-.062-.694-.142-1.57-.074-.827h7.744zM16 13.191v3.09H12.601l-.062-.694-.14-1.57-.074-.826H16z" fill="#EBEBEB"/>
</svg> 