<svg xmlns="http://www.w3.org/2000/svg" viewBox="0 0 32 32" fill="none">
  <path d="M31.396 14.575L17.425.604a2.06 2.06 0 00-2.914 0l-2.9 2.9 3.68 3.68c.856-.289 1.837-.096 2.518.589.685.686.877 1.682.581 2.54l3.547 3.548c.858-.296 1.854-.105 2.54.582.958.958.958 2.508 0 3.465-.958.959-2.508.959-3.466 0-.721-.72-.898-1.779-.533-2.666l-3.308-3.308v8.709c.234.116.454.27.648.459.958.958.958 2.507 0 3.466-.958.958-2.51.958-3.466 0-.958-.959-.958-2.508 0-3.466.237-.236.51-.415.8-.528v-8.785c-.29-.112-.563-.292-.799-.529-.726-.726-.9-1.79-.525-2.682L8.762 5.943l-8.157 8.156a2.06 2.06 0 000 2.915l13.971 13.971a2.06 2.06 0 002.914 0l13.906-13.905a2.06 2.06 0 000-2.915" fill="#F05032"/>
</svg> 