<svg xmlns="http://www.w3.org/2000/svg" viewBox="0 0 32 32" fill="none">
  <path d="M5.902 27.201L3.655 2h24.69l-2.25 25.197L15.985 30 5.902 27.201z" fill="#E44D26"/>
  <path d="M16 27.858l8.17-2.265 1.922-21.532H16v23.797z" fill="#F16529"/>
  <path d="M16 13.407h-4.09l-.282-3.165H16V7.151H8.25l.074.826.757 8.52H16v-3.09z" fill="#EBEBEB"/>
  <path d="M16 21.434l-.014.004-3.442-.93-.22-2.465H9.221l.433 4.853 6.332 1.758.014-.004V21.434z" fill="#EBEBEB"/>
  <path d="M15.989 13.407v3.09h3.806l-.358 4.01-3.448.93v3.216l6.337-1.757.047-.522.726-8.143.075-.826h-7.185z" fill="#fff"/>
  <path d="M15.989 7.151v3.091h7.465l.062-.693.141-1.571.074-.827h-7.742z" fill="#fff"/>
</svg> 