<svg xmlns="http://www.w3.org/2000/svg" viewBox="0 0 32 32" fill="none">
  <path d="M2 2h28v28H2V2z" fill="#F7DF1E"/>
  <path d="M20.809 24.747c0.64 1.044 1.471 1.812 2.942 1.812 1.236 0 2.025-0.618 2.025-1.471 0-1.022-0.812-1.384-2.169-1.977l-0.745-0.32c-2.151-0.916-3.582-2.062-3.582-4.485 0-2.232 1.696-3.929 4.345-3.929 1.889 0 3.249 0.658 4.222 2.382l-2.309 1.482c-0.509-0.916-1.058-1.276-1.913-1.276-0.873 0-1.425 0.553-1.425 1.276 0 0.894 0.552 1.258 1.833 1.813l0.745 0.32c2.536 1.089 3.967 2.206 3.967 4.709 0 2.68-2.104 4.147-4.929 4.147-2.767 0-4.553-1.318-5.422-3.047l2.415-1.436zm-10.506 0.258c0.47 0.832 0.896 1.535 1.924 1.535 0.982 0 1.604-0.384 1.604-1.878v-10.16h2.969v10.182c0 3.076-1.804 4.476-4.436 4.476-2.378 0-3.756-1.231-4.455-2.711l2.394-1.443z" fill="#000"/>
</svg> 