<svg xmlns="http://www.w3.org/2000/svg" viewBox="0 0 32 32" fill="none">
  <path d="M11.622 24.74s-1.264.748.9.978c2.626.308 3.965.264 6.853-.308 0 0 .748.484 1.8.924-6.504 2.794-14.73-.176-9.553-1.593M10.916 21.298s-1.407 1.056.748 1.276c2.794.308 4.999.352 8.809-.484 0 0 .528.528 1.364.814-7.821 2.31-16.52.176-10.921-1.605" fill="#5382A1"/>
  <path d="M18.128 15.203c1.593 1.845-0.418 3.504-0.418 3.504s4.037-2.09 2.186-4.697c-1.737-2.442-3.066-3.65 4.125-7.821 0 0-11.275 2.794-5.894 9.014" fill="#E76F00"/>
  <path d="M26.458 27.005s.924.77-.99 1.364c-3.593 1.144-14.957 1.408-18.12.044-1.143-.506.99-1.188 1.666-1.342.66-.176 1.056-.176 1.056-.176-1.188-.836-7.865 1.693-3.373 2.442 12.155 2.09 22.157-.924 19.761-2.332M12.154 17.94s-5.564 1.317-1.97 1.801c1.515.22 4.565.176 7.403-.088 2.31-.308 4.631-.924 4.631-.924s-.814.352-1.408.748c-5.675 1.494-16.65.795-13.507-.737 2.662-1.307 4.851-.803 4.851-.803M23.401 23.07c5.762-2.997 3.11-5.872 1.23-5.52-.484.088-.693.176-.693.176s.176-.308.528-.44c3.889-1.363 6.88 3.857-1.188 5.96 0 0 .088-.088.122-.176M19.403 2s3.198 3.198-3.022 8.105c-5.013 3.945-1.143 6.197 0 8.765-2.926-2.64-5.06-4.958-3.637-7.128 2.09-3.197 7.887-4.762 6.658-9.742" fill="#5382A1"/>
  <path d="M12.815 30.4c5.52.352 14.035-.198 14.243-2.75 0 0-.396.968-4.57 1.74-4.74.836-10.569.735-14.035.198 0 0 .705.594 4.367.814" fill="#5382A1"/>
</svg> 