<svg xmlns="http://www.w3.org/2000/svg" viewBox="0 0 32 32" fill="none">
  <path d="M15.885 2.1c-7.1 0-6.651 3.07-6.651 3.07v3.19h6.752v0.951H6.545S2 8.681 2 16c0 7.32 3.959 7.062 3.959 7.062h2.361v-3.401s-0.127-3.962 3.9-3.962h6.7s3.752 0.06 3.752-3.622V5.513s0.572-3.413-6.787-3.413zm-3.775 1.984c0.673 0 1.219 0.546 1.219 1.219s-0.546 1.219-1.219 1.219-1.219-0.546-1.219-1.219 0.546-1.219 1.219-1.219z" fill="#3776AB"/>
  <path d="M16.085 29.9c7.1 0 6.651-3.07 6.651-3.07v-3.19h-6.752v-0.951h9.441S30 23.319 30 16c0-7.32-3.959-7.062-3.959-7.062h-2.361v3.401s0.127 3.962-3.9 3.962h-6.7s-3.752-0.06-3.752 3.622v6.564s-0.572 3.413 6.787 3.413zm3.775-1.984c-0.673 0-1.219-0.546-1.219-1.219s0.546-1.219 1.219-1.219 1.219 0.546 1.219 1.219-0.546 1.219-1.219 1.219z" fill="#FFD43B"/>
</svg> 